<svg width="29" height="29" viewBox="0 0 29 29" fill="none" xmlns="http://www.w3.org/2000/svg">
<path d="M9.91719 28.79C5.60135 27.4251 2.36775 24.1498 0.889722 20.1557C0.257455 18.447 -0.0545733 16.6077 0.00783235 14.7305C2.42851 9.53001 7.54906 6.17871 13.1426 5.94901C13.7732 5.92257 14.4104 5.93579 15.0492 5.99198C13.7092 5.9391 12.4068 6.28117 11.2852 6.93721C11.2835 6.93887 11.2803 6.94052 11.277 6.94217C10.9732 7.12064 10.6825 7.32225 10.4082 7.54534C8.10742 9.27882 6.34036 11.7642 5.51759 14.7668C4.73424 17.6257 4.9231 20.5242 5.88546 23.1021C6.70822 25.3032 8.09429 27.2747 9.91719 28.79Z" fill="#B93A22"/>
<path d="M27.8373 18.9793C26.9423 22.2447 24.988 24.9316 22.4507 26.7643C21.9827 27.103 21.4949 27.4121 20.9907 27.6897C18.9905 28.7126 16.6207 29.0166 14.2871 28.3689C11.6677 27.6418 9.61649 25.8587 8.46691 23.603C7.43722 21.5837 7.12683 19.1842 7.77388 16.8228C7.9069 16.3402 8.07277 15.8775 8.27313 15.4347C9.0302 17.4573 10.7037 19.0999 12.9322 19.718C16.2101 20.6285 19.5882 19.0156 21.0252 16.0477C21.2108 15.666 21.3635 15.2611 21.4801 14.8365C21.4965 14.7737 21.513 14.7109 21.5294 14.6481C21.5524 14.5687 21.5754 14.4894 21.5984 14.4084C21.8578 13.4632 22.0024 12.513 22.0418 11.5727C22.0894 10.4209 21.9777 9.28236 21.7215 8.19005C21.4588 7.068 21.0449 5.99221 20.4964 4.99079C19.7295 3.59111 18.6998 2.33686 17.4517 1.3123C17.6159 1.35031 17.7801 1.39327 17.9444 1.43954C21.2568 2.35834 23.9681 4.38762 25.7927 7.01677C27.6993 9.76324 28.6354 13.1674 28.2758 16.6443C28.1953 17.4226 28.0508 18.2026 27.8373 18.9793Z" fill="#E76727"/>
<path d="M21.598 14.4115C21.5767 14.4925 21.5537 14.5718 21.529 14.6511C21.8132 13.4911 21.7918 12.3227 21.5126 11.237C20.9116 8.89214 19.1149 6.9273 16.6286 6.2382C16.4873 6.19854 16.3477 6.16549 16.2065 6.13575C15.8189 6.05312 15.433 6.0052 15.0487 5.99033C14.4099 5.93579 13.7727 5.92092 13.1421 5.94736C7.54855 6.17871 2.428 9.53001 0.00732422 14.7288C0.0434538 13.6249 0.209321 12.5078 0.513138 11.3957C2.54953 3.9693 10.0612 -0.459427 17.4513 1.31372C18.6994 2.33827 19.7291 3.59253 20.4961 4.99221C21.0446 5.99363 21.4584 7.06942 21.7212 8.19147C21.9774 9.28543 22.0891 10.4224 22.0414 11.5742C22.002 12.5144 21.8575 13.4663 21.598 14.4115Z" fill="#E05834"/>
<path d="M10.7026 13.6987C11.2042 13.6987 11.6108 13.2896 11.6108 12.7849C11.6108 12.2802 11.2042 11.8711 10.7026 11.8711C10.201 11.8711 9.79443 12.2802 9.79443 12.7849C9.79443 13.2896 10.201 13.6987 10.7026 13.6987Z" fill="#E05834"/>
</svg>
